<?xml version="1.0" standalone="no"?>
<!DOCTYPE svg PUBLIC "-//W3C//DTD SVG 20010904//EN"
 "http://www.w3.org/TR/2001/REC-SVG-20010904/DTD/svg10.dtd">
<svg version="1.0" xmlns="http://www.w3.org/2000/svg"
 width="700.000000pt" height="700.000000pt" viewBox="0 0 700.000000 700.000000"
 preserveAspectRatio="xMidYMid meet">
<metadata>
Created by potrace 1.14, written by Peter Selinger 2001-2017
</metadata>
<g transform="translate(0.000000,700.000000) scale(0.100000,-0.100000)"
fill="#000000" stroke="none">
<path d="M2993 6157 c-51 -89 -103 -179 -116 -200 l-23 -38 -102 101 c-91 90
-105 100 -120 88 -16 -12 -171 -147 -182 -158 -45 -45 -42 -45 -126 21 -78 62
-154 135 -154 148 0 16 -95 103 -133 123 -141 71 -276 50 -387 -62 -106 -106
-132 -235 -73 -362 40 -86 113 -159 185 -186 l53 -20 3 -744 2 -745 -52 -29
c-29 -16 -70 -38 -91 -49 -125 -67 -296 -186 -437 -304 -331 -277 -617 -654
-777 -1026 -28 -63 -124 -345 -118 -345 3 0 0 -11 -5 -25 -10 -26 -16 -54 -26
-115 -3 -19 -7 -46 -9 -59 -2 -13 -7 -76 -10 -140 -6 -104 -8 -237 -16 -869
-1 -100 1 -186 5 -189 8 -8 6366 -11 6371 -3 3 6 11 86 22 225 10 129 10 729
-1 820 -4 39 -9 88 -12 110 -11 112 -89 388 -149 530 -175 415 -476 805 -847
1099 -46 36 -88 71 -95 76 -27 23 -262 180 -268 180 -3 0 -26 13 -49 30 l-43
29 -2 773 -2 773 55 23 c217 94 277 357 120 531 -26 29 -69 62 -101 78 -49 23
-68 27 -147 27 -78 0 -98 -4 -141 -26 -103 -54 -178 -161 -191 -273 -7 -58
-31 -95 -63 -95 -24 0 -46 30 -238 328 -22 35 -43 60 -46 55 -3 -4 -15 -26
-27 -48 -74 -134 -193 -336 -202 -341 -5 -3 -52 36 -104 87 -52 52 -98 95
-103 97 -7 2 -236 -106 -294 -139 -14 -8 -34 0 -95 37 -42 26 -84 47 -93 46
-9 0 -52 -20 -95 -44 -106 -59 -143 -73 -155 -61 -5 5 -49 101 -97 213 -48
112 -91 205 -97 207 -5 1 -52 -70 -102 -160z m145 -39 c22 -51 57 -133 77
-183 58 -140 43 -132 138 -79 45 25 106 56 134 70 61 27 73 25 155 -31 29 -19
56 -35 60 -35 4 0 74 33 157 73 l149 74 113 -112 114 -113 32 55 c18 30 33 55
33 57 0 4 123 217 146 251 16 25 18 26 34 8 10 -10 54 -76 100 -148 45 -71 91
-144 103 -161 l20 -31 50 19 c27 10 51 18 52 16 1 -2 10 -19 20 -38 27 -52
123 -141 188 -173 l56 -28 0 -730 c0 -401 -4 -729 -9 -729 -4 0 -46 17 -92 38
-45 22 -121 53 -168 71 -47 18 -94 37 -105 41 -49 21 -250 82 -360 110 -140
36 -370 75 -505 87 -177 15 -715 8 -815 -11 -11 -2 -42 -7 -70 -10 -27 -4 -61
-8 -75 -11 -14 -3 -38 -7 -55 -10 -16 -3 -41 -7 -55 -10 -14 -3 -38 -8 -53
-10 -145 -27 -424 -113 -632 -196 -60 -24 -114 -44 -120 -44 -6 0 -9 258 -10
705 l0 705 61 31 c120 60 180 137 209 266 20 89 11 89 120 4 61 -47 71 -53 87
-41 19 13 89 76 170 153 l46 45 112 -113 c61 -61 113 -110 115 -108 2 2 38 64
80 138 95 167 135 230 145 230 4 0 26 -42 48 -92z m-563 -3612 c209 -53 342
-185 363 -360 24 -199 -103 -365 -330 -431 -71 -20 -190 -27 -249 -14 -123 28
-246 126 -303 244 -56 115 -39 284 39 383 34 43 96 102 135 128 53 36 73 44
120 51 19 3 37 7 38 8 5 5 163 -3 187 -9z m2113 -7 c142 -28 254 -114 315
-239 29 -59 31 -74 32 -160 0 -118 -21 -168 -110 -255 -106 -105 -215 -147
-386 -148 -90 -1 -102 2 -163 32 -203 100 -297 308 -228 504 31 88 119 191
208 243 69 40 201 50 332 23z"/>
<path d="M280 594 l0 -203 3220 0 3220 0 0 204 0 203 -3220 0 -3220 0 0 -204z"/>
</g>
</svg>
