<?xml version="1.0" standalone="no"?><!DOCTYPE svg PUBLIC "-//W3C//DTD SVG 1.1//EN" "http://www.w3.org/Graphics/SVG/1.1/DTD/svg11.dtd"><svg t="1605936231546" class="icon" viewBox="0 0 1024 1024" version="1.1" xmlns="http://www.w3.org/2000/svg" p-id="1184" xmlns:xlink="http://www.w3.org/1999/xlink" width="200" height="200"><defs><style type="text/css"></style></defs><path d="M512 1024C229.2224 1024 0 794.7776 0 512 0 229.2224 229.2224 0 512 0c282.7776 0 512 229.2224 512 512 0 282.7776-229.2224 512-512 512z m-129.877333-756.48s-36.1984 2.116267-48.981334 24.490667c-12.782933 22.357333-54.306133 137.3696-54.306133 137.3696s13.841067 6.382933 37.2736-10.6496c23.432533-17.0496 30.890667-46.865067 30.890667-46.865067l42.581333-2.116267 1.0752 121.3952s-73.489067-1.0752-88.405333 0c-14.8992 1.058133-23.415467 40.448-23.415467 40.448h111.8208s-9.591467 67.106133-38.3488 116.087467c-28.740267 48.981333-83.063467 87.313067-83.063467 87.313067s39.424 15.9744 77.738667-6.382934c38.3488-22.357333 66.6112-120.712533 66.6112-120.712533l89.941333 110.062933s8.192-52.394667-1.467733-67.1744c-9.659733-14.7968-62.208-74.2912-62.208-74.2912l-22.954667 20.224 16.3328-65.109333h97.962667s0-38.3488-19.1488-40.465067c-19.182933-2.133333-78.813867 0-78.813867 0v-119.278933h88.405334s-1.0752-39.389867-18.1248-39.389867H359.765333l22.357334-64.955733z m170.001066 61.184v358.570667h36.010667l13.090133 45.0048 63.351467-45.0048h89.053867V328.704H552.123733z m42.666667 39.918933h117.879467v277.9136h-41.864534l-53.384533 40.2432-11.639467-40.2432h-10.990933V368.64z" fill="#0E87EA" p-id="1185"></path></svg>